<svg xmlns="http://www.w3.org/2000/svg" width="128.946" height="88.256" viewBox="0 0 128.946 88.256">
  <g id="Group_7" data-name="Group 7" transform="translate(-866.047 -1927.114)">
    <path id="Path_31" data-name="Path 31" d="M26.291,144.37H150.748a2.244,2.244,0,0,0,2.244-2.243V58.356a2.244,2.244,0,0,0-2.244-2.243H131.9a2.244,2.244,0,0,0,0,4.487h16.6v79.282H28.535V60.6H120.98a2.244,2.244,0,1,0,0-4.487H26.291a2.243,2.243,0,0,0-2.244,2.243v83.771A2.243,2.243,0,0,0,26.291,144.37Zm0,0" transform="translate(842 1871.001)"/>
    <path id="Path_32" data-name="Path 32" d="M66.369,88.176a2.243,2.243,0,0,0-2.244,2.243v64.623a2.243,2.243,0,0,0,2.244,2.243h74.2a2.244,2.244,0,0,0,2.244-2.243V90.419a2.244,2.244,0,0,0-2.244-2.243Zm36.05,16.97a11.837,11.837,0,0,0-9.574,11.6,2.244,2.244,0,0,0,2.244,2.244h7.33v7.48H68.613v-7.48h16.9a2.244,2.244,0,0,0,2.244-2.244V92.663H102.42Zm-33.806,1.871c.049,0,.1.007.149.007h14.51V114.5H68.613ZM83.272,92.663v9.873H68.763c-.051,0-.1,0-.149.007v-9.88ZM123.662,152.8v-4.736a7.362,7.362,0,0,1,4.731,4.736Zm14.659,0h-5.3a11.834,11.834,0,0,0-11.6-9.574,2.244,2.244,0,0,0-2.244,2.244v7.33H68.613v-21.84H102.42v7.33a2.244,2.244,0,1,0,4.488,0V116.746a2.244,2.244,0,0,0-2.244-2.243H97.685a7.342,7.342,0,0,1,6.978-5.087,2.244,2.244,0,0,0,2.244-2.244V92.663h31.413Zm0,0" transform="translate(813.889 1848.512)"/>
    <path id="Path_33" data-name="Path 33" d="M241.877,144.285a9.424,9.424,0,1,0,9.424,9.423A9.435,9.435,0,0,0,241.877,144.285Zm0,14.36a4.937,4.937,0,1,1,4.936-4.937A4.942,4.942,0,0,1,241.877,158.646Zm0,0" transform="translate(695.822 1809.157)"/>
    <path id="Path_34" data-name="Path 34" d="M252.286,216.426h-9.574a2.244,2.244,0,1,0,0,4.487h9.574a2.244,2.244,0,1,0,0-4.487Zm0,0" transform="translate(690.2 1758.557)"/>
    <path id="Path_35" data-name="Path 35" d="M242.713,124.725h9.574a2.244,2.244,0,1,0,0-4.487h-9.574a2.244,2.244,0,1,0,0,4.487Zm0,0" transform="translate(690.2 1826.023)"/>
    <path id="Path_36" data-name="Path 36" d="M90.416,116.71H95.2a2.244,2.244,0,1,0,0-4.487H90.416a2.244,2.244,0,1,0,0,4.487Zm0,0" transform="translate(797.022 1831.646)"/>
    <path id="Path_37" data-name="Path 37" d="M370.133,248.488a2.242,2.242,0,0,0-2.062,1.36l-7.18,16.754a2.263,2.263,0,0,0,2.771,3.013l6.471-2.158,6.47,2.158a2.264,2.264,0,0,0,2.772-3.013l-7.18-16.754A2.243,2.243,0,0,0,370.133,248.488Zm.709,14.476a2.235,2.235,0,0,0-1.418,0l-2.44.813,3.149-7.349,3.149,7.349Zm0,0" transform="translate(605.861 1736.068)"/>
    <path id="Path_38" data-name="Path 38" d="M362.947,195.2a2.244,2.244,0,0,0,2.244-2.244v-8.162l8,9.6a2.244,2.244,0,0,0,3.968-1.437v-14.36a2.244,2.244,0,0,0-4.488,0v8.163l-8-9.6a2.262,2.262,0,0,0-3.968,1.436v14.36A2.244,2.244,0,0,0,362.947,195.2Zm0,0" transform="translate(605.867 1786.668)"/>
  </g>
</svg>
