<svg id="download" xmlns="http://www.w3.org/2000/svg" width="43.124" height="43.124" viewBox="0 0 43.124 43.124">
  <g id="Group_21" data-name="Group 21" transform="translate(14.375)">
    <g id="Group_20" data-name="Group 20">
      <path id="Path_47" data-name="Path 47" d="M184.859,20.759a1.8,1.8,0,0,0-1.608-.994h-3.594V1.8a1.8,1.8,0,1,0-3.594,0V19.765H172.47a1.8,1.8,0,0,0-1.437,2.875l5.39,7.187c.023.031.059.041.084.07a1.754,1.754,0,0,0,.415.347,1.853,1.853,0,0,0,.185.124,1.686,1.686,0,0,0,1.508,0,1.824,1.824,0,0,0,.183-.124,1.753,1.753,0,0,0,.415-.347c.023-.029.061-.04.085-.07l5.39-7.187A1.8,1.8,0,0,0,184.859,20.759Z" transform="translate(-170.674)" fill="#fff"/>
    </g>
  </g>
  <g id="Group_23" data-name="Group 23" transform="translate(0 26.952)">
    <g id="Group_22" data-name="Group 22">
      <path id="Path_48" data-name="Path 48" d="M41.327,320a1.8,1.8,0,0,0-1.8,1.8v5.391a5.4,5.4,0,0,1-5.39,5.39H8.984a5.4,5.4,0,0,1-5.39-5.39V321.8A1.8,1.8,0,0,0,0,321.8v5.391a8.994,8.994,0,0,0,8.984,8.984H34.14a8.994,8.994,0,0,0,8.984-8.984V321.8A1.8,1.8,0,0,0,41.327,320Z" transform="translate(0 -320)" fill="#fff"/>
    </g>
  </g>
</svg>
