<svg xmlns="http://www.w3.org/2000/svg" width="49.219" height="33.688" viewBox="0 0 49.219 33.688">
  <g id="Group_7" data-name="Group 7" transform="translate(-866.047 -1927.114)">
    <path id="Path_31" data-name="Path 31" d="M24.9,89.8H72.409a.857.857,0,0,0,.857-.856V56.969a.857.857,0,0,0-.857-.856H65.214a.856.856,0,0,0,0,1.713h6.338V88.088H25.76V57.826H61.046a.856.856,0,1,0,0-1.713H24.9a.856.856,0,0,0-.857.856V88.945A.856.856,0,0,0,24.9,89.8Zm0,0" transform="translate(842 1871.001)" fill="#fff"/>
    <path id="Path_32" data-name="Path 32" d="M64.982,88.176a.856.856,0,0,0-.857.856V113.7a.856.856,0,0,0,.857.856H93.3a.857.857,0,0,0,.857-.856V89.032a.857.857,0,0,0-.857-.856Zm13.761,6.477a4.518,4.518,0,0,0-3.654,4.428.856.856,0,0,0,.857.857h2.8v2.855h-12.9V99.938H72.29a.857.857,0,0,0,.857-.857V89.889h5.6Zm-12.9.714.057,0h5.538v2.855h-5.6Zm5.6-5.479v3.769H65.9l-.057,0V89.889ZM86.85,112.842v-1.808a2.81,2.81,0,0,1,1.806,1.808Zm5.6,0H90.422a4.517,4.517,0,0,0-4.428-3.654.856.856,0,0,0-.857.857v2.8h-19.3v-8.337h12.9v2.8a.857.857,0,1,0,1.713,0V99.081a.857.857,0,0,0-.857-.856H76.935A2.8,2.8,0,0,1,79.6,96.283a.857.857,0,0,0,.857-.857V89.889h11.99Zm0,0" transform="translate(806.49 1842.593)" fill="#fff"/>
    <path id="Path_33" data-name="Path 33" d="M236.05,144.285a3.6,3.6,0,1,0,3.6,3.6A3.6,3.6,0,0,0,236.05,144.285Zm0,5.481a1.884,1.884,0,1,1,1.884-1.885A1.886,1.886,0,0,1,236.05,149.767Zm0,0" transform="translate(657.347 1792.878)" fill="#fff"/>
    <path id="Path_34" data-name="Path 34" d="M244.98,216.426h-3.654a.856.856,0,1,0,0,1.713h3.654a.856.856,0,1,0,0-1.713Zm0,0" transform="translate(650.245 1728.96)" fill="#fff"/>
    <path id="Path_35" data-name="Path 35" d="M241.325,121.951h3.654a.856.856,0,1,0,0-1.713h-3.654a.856.856,0,1,0,0,1.713Zm0,0" transform="translate(650.245 1814.184)" fill="#fff"/>
    <path id="Path_36" data-name="Path 36" d="M89.028,113.935h1.827a.856.856,0,1,0,0-1.713H89.028a.856.856,0,1,0,0,1.713Zm0,0" transform="translate(785.184 1821.287)" fill="#fff"/>
    <path id="Path_37" data-name="Path 37" d="M364.307,248.488a.856.856,0,0,0-.787.519l-2.741,6.4a.864.864,0,0,0,1.058,1.15l2.47-.824,2.47.824a.864.864,0,0,0,1.058-1.15l-2.741-6.4A.856.856,0,0,0,364.307,248.488Zm.271,5.525a.853.853,0,0,0-.541,0l-.931.31,1.2-2.805,1.2,2.805Zm0,0" transform="translate(543.707 1700.552)" fill="#fff"/>
    <path id="Path_38" data-name="Path 38" d="M361.56,183.542a.857.857,0,0,0,.857-.857V179.57l3.053,3.664a.857.857,0,0,0,1.515-.548V177.2a.857.857,0,0,0-1.713,0v3.116l-3.053-3.664a.863.863,0,0,0-1.515.548v5.481A.857.857,0,0,0,361.56,183.542Zm0,0" transform="translate(543.714 1764.47)" fill="#fff"/>
  </g>
</svg>
