<svg xmlns="http://www.w3.org/2000/svg" xmlns:xlink="http://www.w3.org/1999/xlink" width="49.735" height="37.272" viewBox="0 0 49.735 37.272">
  <defs>
    <clipPath id="clip-path">
      <path id="Path_75" data-name="Path 75" d="M0,31.105H49.735V-6.167H0Z" transform="translate(0 6.167)" fill="#bcbcbc"/>
    </clipPath>
  </defs>
  <g id="Group_69" data-name="Group 69" transform="translate(0 6.167)">
    <g id="Group_68" data-name="Group 68" transform="translate(0 -6.167)" clip-path="url(#clip-path)">
      <g id="Group_67" data-name="Group 67" transform="translate(0 0.002)">
        <path id="Path_74" data-name="Path 74" d="M36.724,0H-1.551a5.734,5.734,0,0,0-5.73,5.73V31.543a5.738,5.738,0,0,0,5.73,5.73H36.724a5.738,5.738,0,0,0,5.73-5.73V5.73A5.734,5.734,0,0,0,36.724,0M23.138,18.633l17.05-14.7a3.9,3.9,0,0,1,.441,1.8V31.543a3.9,3.9,0,0,1-.441,1.8ZM36.724,1.825a3.872,3.872,0,0,1,2.266.731L17.583,21.008-3.818,2.557a3.872,3.872,0,0,1,2.266-.731ZM-5.015,33.338a3.9,3.9,0,0,1-.441-1.8V5.73a3.9,3.9,0,0,1,.441-1.8l17.05,14.7Zm3.463,2.109a3.915,3.915,0,0,1-2.266-.731L13.437,19.842l3.554,3.064a.9.9,0,0,0,1.191,0l3.554-3.064L38.991,34.716a3.915,3.915,0,0,1-2.266.731Z" transform="translate(7.281)" fill="#bcbcbc"/>
      </g>
    </g>
  </g>
</svg>
