<svg xmlns="http://www.w3.org/2000/svg" xmlns:xlink="http://www.w3.org/1999/xlink" width="56.467" height="56.467" viewBox="0 0 56.467 56.467">
  <defs>
    <clipPath id="clip-path">
      <path id="Path_73" data-name="Path 73" d="M0,48.769H56.467V-7.7H0Z" transform="translate(0 7.698)" fill="#bcbcbc"/>
    </clipPath>
  </defs>
  <g id="Group_66" data-name="Group 66" transform="translate(-849 -8233.454)">
    <g id="Group_61" data-name="Group 61" transform="translate(849 8241.152)">
      <g id="Group_65" data-name="Group 65" transform="translate(0 -7.698)" clip-path="url(#clip-path)">
        <g id="Group_61-2" data-name="Group 61" transform="translate(-0.001)">
          <path id="Path_69" data-name="Path 69" d="M35.443,48.769a15.423,15.423,0,0,1-10.937-4.526L-1.072,18.672a15.5,15.5,0,0,1,0-21.881l3.66-3.66A2.847,2.847,0,0,1,4.605-7.7a2.83,2.83,0,0,1,2.01.829l10.6,10.6a2.86,2.86,0,0,1,0,4.027L12.652,12.32a2.953,2.953,0,0,0,0,4.174L26.677,30.526a2.962,2.962,0,0,0,4.181,0l4.563-4.563a2.849,2.849,0,0,1,4.027,0L50.04,36.556a2.842,2.842,0,0,1,0,4.027l-3.66,3.66a15.423,15.423,0,0,1-10.937,4.526M4.605-5.417a.565.565,0,0,0-.4.161L.541-1.6a13.206,13.206,0,0,0,0,18.654L26.119,42.629a13.175,13.175,0,0,0,18.646,0l3.66-3.66a.567.567,0,0,0,0-.8L37.834,27.577a.567.567,0,0,0-.8,0L32.472,32.14a5.251,5.251,0,0,1-7.409,0L11.038,18.107a5.242,5.242,0,0,1,0-7.4L15.6,6.144a.567.567,0,0,0,0-.8L5-5.255a.561.561,0,0,0-.4-.161" transform="translate(5.594 7.698)" fill="#bcbcbc"/>
        </g>
        <g id="Group_62" data-name="Group 62" transform="translate(31.988 -0.005)">
          <path id="Path_70" data-name="Path 70" d="M20.159,21.147A1.146,1.146,0,0,1,19.014,20,21.079,21.079,0,0,0-2.045-1.057,1.133,1.133,0,0,1-3.182-2.194,1.14,1.14,0,0,1-2.045-3.338,23.374,23.374,0,0,1,21.3,20a1.146,1.146,0,0,1-1.144,1.144" transform="translate(3.182 3.338)" fill="#bcbcbc"/>
        </g>
        <g id="Group_63" data-name="Group 63" transform="translate(31.983 7.91)">
          <path id="Path_71" data-name="Path 71" d="M13.329,14.311a1.146,1.146,0,0,1-1.144-1.144A13.161,13.161,0,0,0-.96.022,1.146,1.146,0,0,1-2.1-1.122,1.144,1.144,0,0,1-.96-2.259,15.451,15.451,0,0,1,14.474,13.167a1.146,1.146,0,0,1-1.144,1.144" transform="translate(2.104 2.259)" fill="#bcbcbc"/>
        </g>
        <g id="Group_64" data-name="Group 64" transform="translate(31.986 15.824)">
          <path id="Path_72" data-name="Path 72" d="M6.494,7.476A1.146,1.146,0,0,1,5.349,6.331,5.237,5.237,0,0,0,.119,1.1,1.146,1.146,0,0,1-1.025-.043,1.14,1.14,0,0,1,.119-1.18,7.523,7.523,0,0,1,7.638,6.331,1.146,1.146,0,0,1,6.494,7.476" transform="translate(1.025 1.18)" fill="#bcbcbc"/>
        </g>
      </g>
    </g>
  </g>
</svg>
