<svg xmlns="http://www.w3.org/2000/svg" width="62.306" height="61.272" viewBox="0 0 62.306 61.272">
  <g id="location" transform="translate(0 -5.246)">
    <g id="Group_6" data-name="Group 6" transform="translate(0 5.246)">
      <g id="Group_5" data-name="Group 5" transform="translate(0 0)">
        <path id="Path_23" data-name="Path 23" d="M95.4,47.379c2.566,3.618,5.128,6.854,6.826,8.938.247.3.479.585.7.856H97.8a1.038,1.038,0,0,0,0,2.077h16.615a1.038,1.038,0,1,0,0-2.077h-5.124c.224-.271.456-.552.7-.856,1.7-2.077,4.258-5.32,6.825-8.938a91.241,91.241,0,0,0,6.86-11.056c2.12-4.164,3.2-7.621,3.2-10.275a20.754,20.754,0,0,0-6.082-14.705,1.038,1.038,0,1,0-1.469,1.467A18.686,18.686,0,0,1,124.8,26.047c0,2.324-1,5.464-2.97,9.332a89.176,89.176,0,0,1-6.7,10.8c-2.532,3.571-5.062,6.771-6.739,8.827-.558.683-1.059,1.288-1.487,1.8a1.052,1.052,0,0,1-1.582,0c-.428-.511-.929-1.115-1.487-1.8-1.677-2.055-4.208-5.255-6.739-8.827a89.179,89.179,0,0,1-6.7-10.8c-1.973-3.868-2.97-7.008-2.97-9.332A18.7,18.7,0,0,1,113.388,8.8a1.039,1.039,0,0,0,.811-1.913A20.777,20.777,0,0,0,85.34,26.047c0,2.654,1.076,6.111,3.2,10.281A91.176,91.176,0,0,0,95.4,47.379Z" transform="translate(-74.955 -5.246)" fill="#bcbcbc"/>
        <path id="Path_24" data-name="Path 24" d="M181.045,84.162a1.038,1.038,0,0,0,0-2.077,10.384,10.384,0,1,0,7.343,3.042,1.038,1.038,0,1,0-1.468,1.468,8.307,8.307,0,1,1-5.874-2.433Z" transform="translate(-149.892 -72.734)" fill="#bcbcbc"/>
        <path id="Path_25" data-name="Path 25" d="M61.915,376.738l-6.386-11.423a3.227,3.227,0,0,0-2.826-1.631H45.3a1.038,1.038,0,1,0,0,2.077h7.4a1.152,1.152,0,0,1,1.015.567L60.1,377.75a.934.934,0,0,1-.009.96,1.142,1.142,0,0,1-1.005.55H3.22a1.142,1.142,0,0,1-1-.55.935.935,0,0,1-.009-.96l6.384-11.423A1.15,1.15,0,0,1,9.6,365.76h7.4a1.038,1.038,0,1,0,0-2.077H9.6a3.229,3.229,0,0,0-2.828,1.631L.391,376.738a3.012,3.012,0,0,0,.032,3.023,3.2,3.2,0,0,0,2.8,1.576H59.088a3.2,3.2,0,0,0,2.8-1.576A3.011,3.011,0,0,0,61.915,376.738Z" transform="translate(0 -320.065)" fill="#bcbcbc"/>
        <path id="Path_26" data-name="Path 26" d="M358.176,406.351h-4.154a1.045,1.045,0,0,0-.576.174l-3.115,2.077a1.039,1.039,0,1,0,1.153,1.728l2.851-1.9h3.842a1.039,1.039,0,0,0,0-2.077Z" transform="translate(-307.293 -357.54)" fill="#bcbcbc"/>
        <path id="Path_27" data-name="Path 27" d="M366.937,458.589a1.038,1.038,0,0,0,1.038,1.038h8.308a1.038,1.038,0,0,0,0-2.077h-8.308A1.038,1.038,0,0,0,366.937,458.589Z" transform="translate(-322.284 -402.509)" fill="#bcbcbc"/>
        <path id="Path_28" data-name="Path 28" d="M93.644,410.5a1.038,1.038,0,0,0,.577-1.9l-3.115-2.077a1.044,1.044,0,0,0-.577-.174H86.375a1.038,1.038,0,1,0,0,2.077h3.842l2.854,1.9A1.036,1.036,0,0,0,93.644,410.5Z" transform="translate(-74.952 -357.539)" fill="#bcbcbc"/>
        <path id="Path_29" data-name="Path 29" d="M60.775,457.551a1.038,1.038,0,0,0,0,2.077h8.308a1.038,1.038,0,0,0,0-2.077Z" transform="translate(-52.468 -402.509)" fill="#bcbcbc"/>
      </g>
    </g>
  </g>
</svg>
