<svg xmlns="http://www.w3.org/2000/svg" width="59" height="59" viewBox="0 0 59 59">
  <g id="Group_60" data-name="Group 60" transform="translate(-581.324 -7409.324)">
    <path id="right" d="M48.924,34.517A21.614,21.614,0,0,0,27.505,56.131a1.753,1.753,0,0,1-3.505,0A25.1,25.1,0,0,1,48.93,31.012l2.334,1.75Zm-1.087,6.658,9.348-7.011a1.753,1.753,0,0,0,0-2.8l-9.348-7.011a1.753,1.753,0,0,0-2.1,2.8l7.478,5.609-7.478,5.609a1.753,1.753,0,1,0,2.1,2.8Z" transform="translate(569.562 7397.563)" fill="#fff"/>
    <g id="Ellipse_1" data-name="Ellipse 1" transform="translate(581.324 7409.324)" fill="none" stroke="#fff" stroke-width="2">
      <circle cx="29.5" cy="29.5" r="29.5" stroke="none"/>
      <circle cx="29.5" cy="29.5" r="28.5" fill="none"/>
    </g>
  </g>
</svg>
