<svg xmlns="http://www.w3.org/2000/svg" width="63.175" height="84.215" viewBox="0 0 63.175 84.215">
  <g id="clipboard" transform="translate(-63.958)">
    <g id="Group_46" data-name="Group 46" transform="translate(90.39 19.323)">
      <g id="Group_45" data-name="Group 45">
        <g id="Group_38" data-name="Group 38">
          <g id="Group_36" data-name="Group 36" transform="translate(0 6.332)">
            <path id="Path_51" data-name="Path 51" d="M239.287,158.442h-13.4a1.234,1.234,0,1,1,0-2.467h13.4a1.234,1.234,0,1,1,0,2.467Z" transform="translate(-224.657 -155.975)" fill="#fff"/>
          </g>
          <g id="Group_37" data-name="Group 37">
            <path id="Path_52" data-name="Path 52" d="M252.684,119.945H225.891a1.234,1.234,0,1,1,0-2.467h26.793a1.234,1.234,0,1,1,0,2.467Z" transform="translate(-224.657 -117.478)" fill="#fff"/>
          </g>
        </g>
        <g id="Group_41" data-name="Group 41" transform="translate(0 20.673)">
          <g id="Group_39" data-name="Group 39" transform="translate(0 6.332)">
            <path id="Path_53" data-name="Path 53" d="M239.287,284.129h-13.4a1.234,1.234,0,1,1,0-2.467h13.4a1.234,1.234,0,1,1,0,2.467Z" transform="translate(-224.657 -281.662)" fill="#fff"/>
          </g>
          <g id="Group_40" data-name="Group 40">
            <path id="Path_54" data-name="Path 54" d="M252.684,245.631H225.891a1.234,1.234,0,1,1,0-2.467h26.793a1.234,1.234,0,1,1,0,2.467Z" transform="translate(-224.657 -243.164)" fill="#fff"/>
          </g>
        </g>
        <g id="Group_44" data-name="Group 44" transform="translate(0 41.347)">
          <g id="Group_42" data-name="Group 42" transform="translate(0 6.332)">
            <path id="Path_55" data-name="Path 55" d="M239.287,409.816h-13.4a1.234,1.234,0,1,1,0-2.467h13.4a1.234,1.234,0,1,1,0,2.467Z" transform="translate(-224.657 -407.349)" fill="#fff"/>
          </g>
          <g id="Group_43" data-name="Group 43">
            <path id="Path_56" data-name="Path 56" d="M252.684,371.318H225.891a1.234,1.234,0,1,1,0-2.467h26.793a1.234,1.234,0,1,1,0,2.467Z" transform="translate(-224.657 -368.851)" fill="#fff"/>
          </g>
        </g>
      </g>
    </g>
    <g id="Group_47" data-name="Group 47" transform="translate(81.201 0)">
      <path id="Path_57" data-name="Path 57" d="M193.8,11.621H172.468a3.682,3.682,0,0,1-3.678-3.677V3.678A3.682,3.682,0,0,1,172.468,0H193.8a3.682,3.682,0,0,1,3.678,3.678V7.944a3.681,3.681,0,0,1-3.677,3.677ZM172.468,2.467a1.212,1.212,0,0,0-1.21,1.21V7.944a1.212,1.212,0,0,0,1.21,1.21H193.8a1.212,1.212,0,0,0,1.21-1.21V3.678a1.212,1.212,0,0,0-1.21-1.21Z" transform="translate(-168.79 0)" fill="#fff"/>
    </g>
    <g id="Group_51" data-name="Group 51" transform="translate(71.44 17.669)">
      <g id="Group_48" data-name="Group 48">
        <path id="Path_58" data-name="Path 58" d="M118.243,119.531H112.76a3.316,3.316,0,0,1-3.312-3.312v-5.483a3.316,3.316,0,0,1,3.312-3.312h5.483a3.316,3.316,0,0,1,3.312,3.312v5.483a3.316,3.316,0,0,1-3.312,3.312Zm-5.483-9.639a.846.846,0,0,0-.845.845v5.483a.846.846,0,0,0,.845.845h5.483a.846.846,0,0,0,.845-.845v-5.483a.846.846,0,0,0-.845-.845Z" transform="translate(-109.448 -107.424)" fill="#fff"/>
      </g>
      <g id="Group_49" data-name="Group 49" transform="translate(0 20.673)">
        <path id="Path_59" data-name="Path 59" d="M118.243,245.217H112.76a3.316,3.316,0,0,1-3.312-3.312v-5.483a3.316,3.316,0,0,1,3.312-3.312h5.483a3.316,3.316,0,0,1,3.312,3.312V241.9a3.316,3.316,0,0,1-3.312,3.312Zm-5.483-9.64a.846.846,0,0,0-.845.845V241.9a.846.846,0,0,0,.845.845h5.483a.846.846,0,0,0,.845-.845v-5.483a.846.846,0,0,0-.845-.845Z" transform="translate(-109.448 -233.11)" fill="#fff"/>
      </g>
      <g id="Group_50" data-name="Group 50" transform="translate(0 41.346)">
        <path id="Path_60" data-name="Path 60" d="M118.243,370.9H112.76a3.316,3.316,0,0,1-3.312-3.312v-5.483a3.316,3.316,0,0,1,3.312-3.312h5.483a3.316,3.316,0,0,1,3.312,3.312v5.483a3.316,3.316,0,0,1-3.312,3.312Zm-5.483-9.64a.846.846,0,0,0-.845.845v5.483a.846.846,0,0,0,.845.845h5.483a.846.846,0,0,0,.845-.845v-5.483a.846.846,0,0,0-.845-.845Z" transform="translate(-109.448 -358.796)" fill="#fff"/>
      </g>
    </g>
    <g id="Group_52" data-name="Group 52" transform="translate(63.958 4.577)">
      <path id="Path_61" data-name="Path 61" d="M121.789,107.464H69.3a5.35,5.35,0,0,1-5.344-5.344V33.17A5.35,5.35,0,0,1,69.3,27.826h7.393a1.234,1.234,0,1,1,0,2.467H69.3a2.88,2.88,0,0,0-2.877,2.877v68.95A2.88,2.88,0,0,0,69.3,105h52.487a2.88,2.88,0,0,0,2.877-2.877V33.17a2.88,2.88,0,0,0-2.877-2.877H114.4a1.234,1.234,0,1,1,0-2.467h7.393a5.35,5.35,0,0,1,5.344,5.344v68.95A5.35,5.35,0,0,1,121.789,107.464Z" transform="translate(-63.958 -27.826)" fill="#fff"/>
    </g>
  </g>
</svg>
