<svg xmlns="http://www.w3.org/2000/svg" width="79.336" height="79.563" viewBox="0 0 79.336 79.563">
  <g id="Out_line" data-name="Out line" transform="translate(-16 -16)">
    <path id="Path_62" data-name="Path 62" d="M143.956,231.913V217.326A1.326,1.326,0,0,0,142.63,216h-5.3A1.326,1.326,0,0,0,136,217.326v14.587h2.652V218.652H141.3v13.261Z" transform="translate(-100.109 -166.849)" fill="#fff"/>
    <path id="Path_63" data-name="Path 63" d="M271.956,243.891V225.326A1.326,1.326,0,0,0,270.63,224h-5.3A1.326,1.326,0,0,0,264,225.326v18.565h2.652V226.652H269.3v17.239Z" transform="translate(-206.892 -173.522)" fill="#fff"/>
    <path id="Path_64" data-name="Path 64" d="M207.956,217.2V193.326A1.326,1.326,0,0,0,206.63,192h-5.3A1.326,1.326,0,0,0,200,193.326v21.217h2.652V194.652H205.3V217.2Z" transform="translate(-153.501 -146.827)" fill="#fff"/>
    <path id="Path_65" data-name="Path 65" d="M335.956,206.587V193.326A1.326,1.326,0,0,0,334.63,192h-5.3A1.326,1.326,0,0,0,328,193.326v14.587h2.652V194.652H333.3v11.935Z" transform="translate(-260.284 -146.827)" fill="#fff"/>
    <path id="Path_66" data-name="Path 66" d="M399.956,165.217V145.326A1.326,1.326,0,0,0,398.63,144h-5.3A1.326,1.326,0,0,0,392,145.326v19.891h2.652V146.652H397.3v18.565Z" transform="translate(-313.675 -106.783)" fill="#fff"/>
    <path id="Path_67" data-name="Path 67" d="M116.366,46.111a1.326,1.326,0,0,0,1.875,0l10.946-10.946,11,12.222a1.326,1.326,0,0,0,.951.439h.035a1.326,1.326,0,0,0,.938-.388L159.738,29.81v3.429a1.326,1.326,0,0,0,1.326,1.326h5.3a1.326,1.326,0,0,0,1.326-1.326V17.326A1.326,1.326,0,0,0,166.368,16H150.455a1.326,1.326,0,0,0-1.326,1.326v5.3a1.326,1.326,0,0,0,1.326,1.326h3.429L141.224,36.617l-11-12.222a1.326,1.326,0,0,0-1.923-.051L112.388,40.257a1.326,1.326,0,0,0,0,1.875Zm12.822-18.9,11,12.222a1.326,1.326,0,0,0,1.923.051l15.913-15.913a1.326,1.326,0,0,0-.938-2.264h-5.3V18.652h13.261V31.913H162.39v-5.3a1.326,1.326,0,0,0-2.264-.938l-18.9,18.9-11-12.222a1.326,1.326,0,0,0-.951-.439h-.035a1.326,1.326,0,0,0-.938.388l-11,11-2.1-2.1Z" transform="translate(-80.087)" fill="#fff"/>
    <path id="Path_68" data-name="Path 68" d="M27.935,320.721v-2.652h3.978a1.326,1.326,0,0,0,1.326-1.326v-3.474a33.338,33.338,0,0,0,46.118-.986L93.849,297.79a5.077,5.077,0,0,0-6.2-7.943,5.168,5.168,0,0,0-8.485-.283l-.562.754a5.691,5.691,0,0,0-8.655,2.18L66.6,299.926a5.933,5.933,0,0,0-2.2-.423H48.375l-2.264-2.264a10.72,10.72,0,0,0-12.872-1.726V294.2a1.326,1.326,0,0,0-1.326-1.326H27.935v-1.326a1.326,1.326,0,0,0-1.326-1.326H16v2.652h9.282v26.521H16v2.652H26.608A1.326,1.326,0,0,0,27.935,320.721ZM84.6,290.495a2.509,2.509,0,0,1,1.016,1.167L75.1,302.184a22.432,22.432,0,0,1-4.728,3.617l10.921-14.651A2.509,2.509,0,0,1,84.6,290.495Zm-12.238,3.091a3.036,3.036,0,0,1,4.651-1.141L69.55,302.46a6,6,0,0,0-.731-1Zm-28.128,5.529,2.652,2.652a1.326,1.326,0,0,0,.938.388H64.4a3.315,3.315,0,1,1,0,6.63H47.825v2.652H64.4a5.951,5.951,0,0,0,4.369-1.909,25.046,25.046,0,0,0,8.2-5.471l11.574-11.574a2.425,2.425,0,0,1,3.429,3.429L77.481,310.407a30.688,30.688,0,0,1-43.4,0l-.843-.843V298.754A8.06,8.06,0,0,1,44.236,299.115Zm-13.649-3.59v19.891H27.935V295.526Z" transform="translate(0 -226.483)" fill="#fff"/>
  </g>
</svg>
