<svg xmlns="http://www.w3.org/2000/svg" width="89.971" height="88.479" viewBox="0 0 89.971 88.479">
  <g id="Group_85" data-name="Group 85" transform="translate(-1106.165 -1934.432)">
    <g id="location" transform="translate(1106.164 1929.186)">
      <g id="Group_6" data-name="Group 6" transform="translate(0 5.246)">
        <g id="Group_5" data-name="Group 5" transform="translate(0 0)">
          <path id="Path_23" data-name="Path 23" d="M99.861,66.087c3.705,5.224,7.4,9.9,9.856,12.906.357.438.691.844,1.015,1.236h-7.4a1.5,1.5,0,0,0,0,3h23.992a1.5,1.5,0,0,0,0-3h-7.4c.324-.391.658-.8,1.017-1.236,2.45-3,6.148-7.682,9.855-12.906A131.754,131.754,0,0,0,140.7,50.121c3.062-6.013,4.616-11,4.616-14.838a29.97,29.97,0,0,0-8.783-21.235,1.5,1.5,0,1,0-2.122,2.119,26.983,26.983,0,0,1,7.906,19.116c0,3.356-1.443,7.89-4.289,13.476a128.773,128.773,0,0,1-9.681,15.6c-3.656,5.157-7.31,9.777-9.732,12.746-.805.987-1.53,1.859-2.147,2.6a1.519,1.519,0,0,1-2.285,0c-.618-.738-1.342-1.611-2.147-2.6-2.422-2.967-6.076-7.588-9.732-12.746a128.777,128.777,0,0,1-9.681-15.6c-2.849-5.586-4.289-10.12-4.289-13.476a27,27,0,0,1,37.5-24.909,1.5,1.5,0,0,0,1.171-2.762A30,30,0,0,0,85.34,35.283c0,3.833,1.554,8.825,4.616,14.845A131.66,131.66,0,0,0,99.861,66.087Z" transform="translate(-70.343 -5.246)"/>
          <path id="Path_24" data-name="Path 24" d="M185.657,85.084a1.5,1.5,0,0,0,0-3,15,15,0,1,0,10.6,4.392,1.5,1.5,0,1,0-2.12,2.12,12,12,0,1,1-8.483-3.513Z" transform="translate(-140.67 -68.582)"/>
          <path id="Path_25" data-name="Path 25" d="M89.407,382.534l-9.222-16.495a4.661,4.661,0,0,0-4.08-2.356H65.418a1.5,1.5,0,1,0,0,3H76.1a1.663,1.663,0,0,1,1.465.819L86.789,384a1.349,1.349,0,0,1-.014,1.386,1.649,1.649,0,0,1-1.451.795H4.649a1.649,1.649,0,0,1-1.45-.795A1.35,1.35,0,0,1,3.186,384L12.4,367.5a1.661,1.661,0,0,1,1.463-.819H24.555a1.5,1.5,0,1,0,0-3H13.869a4.663,4.663,0,0,0-4.083,2.356L.565,382.534A4.349,4.349,0,0,0,.611,386.9a4.619,4.619,0,0,0,4.038,2.276H85.324a4.618,4.618,0,0,0,4.037-2.276A4.348,4.348,0,0,0,89.407,382.534Z" transform="translate(0 -300.697)"/>
          <path id="Path_26" data-name="Path 26" d="M361.865,406.351h-6a1.509,1.509,0,0,0-.832.252l-4.5,3a1.5,1.5,0,1,0,1.664,2.5l4.116-2.747h5.548a1.5,1.5,0,0,0,0-3Z" transform="translate(-288.388 -335.867)"/>
          <path id="Path_27" data-name="Path 27" d="M366.937,459.05a1.5,1.5,0,0,0,1.5,1.5h12a1.5,1.5,0,0,0,0-3h-12A1.5,1.5,0,0,0,366.937,459.05Z" transform="translate(-302.457 -378.069)"/>
          <path id="Path_28" data-name="Path 28" d="M97.333,412.348a1.5,1.5,0,0,0,.834-2.747l-4.5-3a1.508,1.508,0,0,0-.834-.252h-6a1.5,1.5,0,1,0,0,3h5.548l4.121,2.747A1.5,1.5,0,0,0,97.333,412.348Z" transform="translate(-70.341 -335.866)"/>
          <path id="Path_29" data-name="Path 29" d="M61.236,457.551a1.5,1.5,0,0,0,0,3h12a1.5,1.5,0,0,0,0-3Z" transform="translate(-49.24 -378.069)"/>
        </g>
      </g>
    </g>
  </g>
</svg>
