<svg xmlns="http://www.w3.org/2000/svg" width="190.797" height="181.872" viewBox="0 0 190.797 181.872">
  <g id="architect" transform="translate(0.001 -1.496)">
    <g id="Group_3" data-name="Group 3" transform="translate(-0.001 117.784)">
      <path id="Path_31" data-name="Path 31" d="M95.4,91.182a2.972,2.972,0,0,1-1.3-.3L1.683,46.166a2.982,2.982,0,0,1,2.6-5.369L95.4,84.889,186.516,40.8a2.982,2.982,0,1,1,2.6,5.369L96.7,90.887a2.988,2.988,0,0,1-1.3.3Z" transform="translate(0.001 -40.503)" fill="#fff"/>
    </g>
    <g id="Group_4" data-name="Group 4" transform="translate(-0.001 132.688)">
      <path id="Path_32" data-name="Path 32" d="M95.4,96.183a2.972,2.972,0,0,1-1.3-.3L1.683,51.167a2.982,2.982,0,0,1,2.6-5.369L95.4,89.89,186.516,45.8a2.982,2.982,0,1,1,2.6,5.369L96.7,95.888a2.988,2.988,0,0,1-1.3.3Z" transform="translate(0.001 -45.503)" fill="#fff"/>
    </g>
    <g id="Group_5" data-name="Group 5" transform="translate(0.001 117.782)">
      <path id="Path_33" data-name="Path 33" d="M2.981,61.371A2.978,2.978,0,0,1,0,58.39V43.484a2.981,2.981,0,1,1,5.962,0V58.39A2.978,2.978,0,0,1,2.981,61.371Z" transform="translate(0 -40.503)" fill="#fff"/>
    </g>
    <g id="Group_6" data-name="Group 6" transform="translate(184.834 117.782)">
      <path id="Path_34" data-name="Path 34" d="M64.981,61.371A2.978,2.978,0,0,1,62,58.39V43.484a2.981,2.981,0,1,1,5.962,0V58.39A2.978,2.978,0,0,1,64.981,61.371Z" transform="translate(-62 -40.503)" fill="#fff"/>
    </g>
    <g id="Group_7" data-name="Group 7" transform="translate(92.418 162.5)">
      <path id="Path_35" data-name="Path 35" d="M33.981,76.371A2.978,2.978,0,0,1,31,73.39V58.484a2.981,2.981,0,0,1,5.962,0V73.39A2.978,2.978,0,0,1,33.981,76.371Z" transform="translate(-31 -55.503)" fill="#fff"/>
    </g>
    <g id="Group_8" data-name="Group 8" transform="translate(122.304 155.527)">
      <path id="Path_36" data-name="Path 36" d="M44.021,59.126a2.981,2.981,0,0,1-.033-5.962h.033a2.981,2.981,0,1,1,0,5.962Z" transform="translate(-41.025 -53.164)" fill="#fff"/>
    </g>
    <g id="Group_9" data-name="Group 9" transform="translate(167.022 133.889)">
      <path id="Path_37" data-name="Path 37" d="M59.021,51.868a2.981,2.981,0,0,1-.033-5.962h.033a2.981,2.981,0,1,1,0,5.962Z" transform="translate(-56.025 -45.906)" fill="#fff"/>
    </g>
    <g id="Group_10" data-name="Group 10" transform="translate(152.116 141.101)">
      <path id="Path_38" data-name="Path 38" d="M54.021,54.287a2.981,2.981,0,0,1-.033-5.962h.033a2.981,2.981,0,0,1,0,5.962Z" transform="translate(-51.025 -48.325)" fill="#fff"/>
    </g>
    <g id="Group_11" data-name="Group 11" transform="translate(137.21 148.315)">
      <path id="Path_39" data-name="Path 39" d="M49.021,56.707a2.981,2.981,0,0,1-.033-5.962h.033a2.981,2.981,0,0,1,0,5.962Z" transform="translate(-46.025 -50.745)" fill="#fff"/>
    </g>
    <g id="Group_12" data-name="Group 12" transform="translate(107.398 162.741)">
      <path id="Path_40" data-name="Path 40" d="M39.021,61.546a2.981,2.981,0,0,1-.033-5.962h.033a2.981,2.981,0,1,1,0,5.962Z" transform="translate(-36.025 -55.584)" fill="#fff"/>
    </g>
    <g id="Group_13" data-name="Group 13" transform="translate(62.681 155.527)">
      <path id="Path_41" data-name="Path 41" d="M24.021,59.126a2.981,2.981,0,0,1-.033-5.962h.033a2.981,2.981,0,1,1,0,5.962Z" transform="translate(-21.025 -53.164)" fill="#fff"/>
    </g>
    <g id="Group_14" data-name="Group 14" transform="translate(17.963 133.889)">
      <path id="Path_42" data-name="Path 42" d="M9.021,51.868a2.981,2.981,0,0,1-.033-5.962h.033a2.981,2.981,0,1,1,0,5.962Z" transform="translate(-6.025 -45.906)" fill="#fff"/>
    </g>
    <g id="Group_15" data-name="Group 15" transform="translate(32.869 141.101)">
      <path id="Path_43" data-name="Path 43" d="M14.021,54.287a2.981,2.981,0,0,1-.033-5.962h.033a2.981,2.981,0,1,1,0,5.962Z" transform="translate(-11.025 -48.325)" fill="#fff"/>
    </g>
    <g id="Group_16" data-name="Group 16" transform="translate(47.775 148.315)">
      <path id="Path_44" data-name="Path 44" d="M19.021,56.707a2.981,2.981,0,0,1-.033-5.962h.033a2.981,2.981,0,0,1,0,5.962Z" transform="translate(-16.025 -50.745)" fill="#fff"/>
    </g>
    <g id="Group_17" data-name="Group 17" transform="translate(77.586 162.741)">
      <path id="Path_45" data-name="Path 45" d="M29.021,61.546a2.981,2.981,0,0,1-.033-5.962h.033a2.981,2.981,0,1,1,0,5.962Z" transform="translate(-26.025 -55.584)" fill="#fff"/>
    </g>
    <g id="Group_18" data-name="Group 18" transform="translate(50.33 87.499)">
      <path id="Path_46" data-name="Path 46" d="M19.866,42.243a2.98,2.98,0,0,1-1.3-5.664L30.842,30.64a2.982,2.982,0,1,1,2.6,5.369L21.162,41.948A3.023,3.023,0,0,1,19.866,42.243Z" transform="translate(-16.882 -30.345)" fill="#fff"/>
    </g>
    <g id="Group_19" data-name="Group 19" transform="translate(0.002 101.351)">
      <path id="Path_47" data-name="Path 47" d="M2.984,57.385a2.98,2.98,0,0,1-1.3-5.664L35.657,35.285a2.982,2.982,0,1,1,2.6,5.369L4.28,57.086a2.984,2.984,0,0,1-1.3.3Z" transform="translate(0 -34.991)" fill="#fff"/>
    </g>
    <g id="Group_20" data-name="Group 20" transform="translate(122.23 87.495)">
      <path id="Path_48" data-name="Path 48" d="M56.242,42.237a2.975,2.975,0,0,1-1.3-.3L42.684,36.006a2.982,2.982,0,0,1,2.6-5.369L57.542,36.57a2.982,2.982,0,0,1-1.3,5.667Z" transform="translate(-41 -30.343)" fill="#fff"/>
    </g>
    <g id="Group_21" data-name="Group 21" transform="translate(150.853 101.341)">
      <path id="Path_49" data-name="Path 49" d="M87.561,57.392a2.975,2.975,0,0,1-1.3-.3L52.285,40.652a2.982,2.982,0,1,1,2.6-5.369L88.861,51.725a2.982,2.982,0,0,1-1.3,5.667Z" transform="translate(-50.601 -34.988)" fill="#fff"/>
    </g>
    <g id="Group_22" data-name="Group 22" transform="translate(62.607 117.788)">
      <path id="Path_50" data-name="Path 50" d="M53.793,61.373a2.986,2.986,0,0,1-1.333-.313L22.648,46.151a2.982,2.982,0,1,1,2.668-5.333L53.793,55.059,82.272,40.818a2.982,2.982,0,1,1,2.668,5.333L55.128,61.06a3.007,3.007,0,0,1-1.336.313Z" transform="translate(-21 -40.505)" fill="#fff"/>
    </g>
    <g id="Group_23" data-name="Group 23" transform="translate(62.607 16.407)">
      <path id="Path_51" data-name="Path 51" d="M53.793,27.366a2.986,2.986,0,0,1-1.333-.313L22.648,12.144a2.982,2.982,0,1,1,2.668-5.333L53.793,21.052,82.272,6.811a2.982,2.982,0,1,1,2.668,5.333L55.128,27.053a3.007,3.007,0,0,1-1.336.313Z" transform="translate(-21 -6.498)" fill="#fff"/>
    </g>
    <g id="Group_24" data-name="Group 24" transform="translate(62.604 1.496)">
      <path id="Path_52" data-name="Path 52" d="M83.6,22.37a2.989,2.989,0,0,1-1.33-.313L53.795,7.813,25.315,22.054a2.982,2.982,0,0,1-2.668-5.333L52.459,1.812a2.98,2.98,0,0,1,2.668,0L84.939,16.72A2.982,2.982,0,0,1,83.6,22.37Z" transform="translate(-20.999 -1.496)" fill="#fff"/>
    </g>
    <g id="Group_25" data-name="Group 25" transform="translate(92.418 31.31)">
      <path id="Path_53" data-name="Path 53" d="M33.981,118.843A2.978,2.978,0,0,1,31,115.862V14.478a2.981,2.981,0,1,1,5.962,0V115.862A2.978,2.978,0,0,1,33.981,118.843Z" transform="translate(-31 -11.497)" fill="#fff"/>
    </g>
    <g id="Group_26" data-name="Group 26" transform="translate(122.23 16.401)">
      <path id="Path_54" data-name="Path 54" d="M43.981,113.842A2.978,2.978,0,0,1,41,110.861V9.477a2.981,2.981,0,0,1,5.962,0V110.861A2.978,2.978,0,0,1,43.981,113.842Z" transform="translate(-41 -6.496)" fill="#fff"/>
    </g>
    <g id="Group_27" data-name="Group 27" transform="translate(62.606 16.401)">
      <path id="Path_55" data-name="Path 55" d="M23.981,113.842A2.978,2.978,0,0,1,21,110.861V9.477a2.981,2.981,0,1,1,5.962,0V110.861A2.978,2.978,0,0,1,23.981,113.842Z" transform="translate(-21 -6.496)" fill="#fff"/>
    </g>
    <g id="Group_28" data-name="Group 28" transform="translate(71.544 107.339)">
      <path id="Path_56" data-name="Path 56" d="M38.9,48.925a2.989,2.989,0,0,1-1.33-.313L25.646,42.646a2.982,2.982,0,1,1,2.668-5.333l11.928,5.965A2.98,2.98,0,0,1,38.9,48.925Z" transform="translate(-23.998 -37)" fill="#fff"/>
    </g>
    <g id="Group_29" data-name="Group 29" transform="translate(71.544 95.414)">
      <path id="Path_57" data-name="Path 57" d="M38.9,44.925a2.989,2.989,0,0,1-1.33-.313L25.646,38.646a2.982,2.982,0,1,1,2.668-5.333l11.928,5.965A2.98,2.98,0,0,1,38.9,44.925Z" transform="translate(-23.998 -33)" fill="#fff"/>
    </g>
    <g id="Group_30" data-name="Group 30" transform="translate(71.544 83.488)">
      <path id="Path_58" data-name="Path 58" d="M38.9,40.926a2.989,2.989,0,0,1-1.33-.313L25.646,34.647a2.982,2.982,0,1,1,2.668-5.333l11.928,5.965A2.98,2.98,0,0,1,38.9,40.926Z" transform="translate(-23.998 -29)" fill="#fff"/>
    </g>
    <g id="Group_31" data-name="Group 31" transform="translate(71.544 71.565)">
      <path id="Path_59" data-name="Path 59" d="M38.9,36.925a2.989,2.989,0,0,1-1.33-.313L25.646,30.647a2.982,2.982,0,1,1,2.668-5.333l11.928,5.965A2.98,2.98,0,0,1,38.9,36.925Z" transform="translate(-23.998 -25)" fill="#fff"/>
    </g>
    <g id="Group_32" data-name="Group 32" transform="translate(71.544 59.64)">
      <path id="Path_60" data-name="Path 60" d="M38.9,32.925a2.989,2.989,0,0,1-1.33-.313L25.646,26.646a2.982,2.982,0,1,1,2.668-5.333l11.928,5.965A2.98,2.98,0,0,1,38.9,32.925Z" transform="translate(-23.998 -21)" fill="#fff"/>
    </g>
    <g id="Group_33" data-name="Group 33" transform="translate(71.544 47.714)">
      <path id="Path_61" data-name="Path 61" d="M38.9,28.925a2.989,2.989,0,0,1-1.33-.313L25.646,22.647a2.982,2.982,0,1,1,2.668-5.333l11.928,5.965A2.98,2.98,0,0,1,38.9,28.926Z" transform="translate(-23.998 -17)" fill="#fff"/>
    </g>
    <g id="Group_34" data-name="Group 34" transform="translate(71.544 35.79)">
      <path id="Path_62" data-name="Path 62" d="M38.9,24.925a2.989,2.989,0,0,1-1.33-.313L25.646,18.647a2.982,2.982,0,1,1,2.668-5.333l11.928,5.965A2.98,2.98,0,0,1,38.9,24.926Z" transform="translate(-23.998 -13)" fill="#fff"/>
    </g>
    <g id="Group_35" data-name="Group 35" transform="translate(101.362 107.336)">
      <path id="Path_63" data-name="Path 63" d="M36.987,48.927a2.982,2.982,0,0,1-1.339-5.649l11.928-5.965a2.982,2.982,0,0,1,2.668,5.333L38.316,48.611A2.953,2.953,0,0,1,36.987,48.927Z" transform="translate(-34 -36.999)" fill="#fff"/>
    </g>
    <g id="Group_36" data-name="Group 36" transform="translate(101.362 95.412)">
      <path id="Path_64" data-name="Path 64" d="M36.987,44.927a2.982,2.982,0,0,1-1.339-5.649l11.928-5.965a2.982,2.982,0,0,1,2.668,5.333L38.316,44.611a2.953,2.953,0,0,1-1.33.316Z" transform="translate(-34 -32.999)" fill="#fff"/>
    </g>
    <g id="Group_37" data-name="Group 37" transform="translate(101.362 83.486)">
      <path id="Path_65" data-name="Path 65" d="M36.987,40.927a2.982,2.982,0,0,1-1.339-5.649l11.928-5.965a2.982,2.982,0,0,1,2.668,5.333L38.316,40.611A2.953,2.953,0,0,1,36.987,40.927Z" transform="translate(-34 -28.999)" fill="#fff"/>
    </g>
    <g id="Group_38" data-name="Group 38" transform="translate(101.362 71.562)">
      <path id="Path_66" data-name="Path 66" d="M36.987,36.927a2.982,2.982,0,0,1-1.339-5.649l11.928-5.965a2.982,2.982,0,0,1,2.668,5.333L38.316,36.611a2.953,2.953,0,0,1-1.33.316Z" transform="translate(-34 -24.999)" fill="#fff"/>
    </g>
    <g id="Group_39" data-name="Group 39" transform="translate(101.362 59.637)">
      <path id="Path_67" data-name="Path 67" d="M36.987,32.927a2.982,2.982,0,0,1-1.339-5.649l11.928-5.965a2.982,2.982,0,0,1,2.668,5.333L38.316,32.611a2.953,2.953,0,0,1-1.33.316Z" transform="translate(-34 -20.999)" fill="#fff"/>
    </g>
    <g id="Group_40" data-name="Group 40" transform="translate(101.362 47.711)">
      <path id="Path_68" data-name="Path 68" d="M36.987,28.927a2.982,2.982,0,0,1-1.339-5.649l11.928-5.965a2.982,2.982,0,0,1,2.668,5.333L38.316,28.611a2.953,2.953,0,0,1-1.33.316Z" transform="translate(-34 -16.999)" fill="#fff"/>
    </g>
    <g id="Group_41" data-name="Group 41" transform="translate(101.362 35.787)">
      <path id="Path_69" data-name="Path 69" d="M36.987,24.927a2.982,2.982,0,0,1-1.339-5.649l11.928-5.965a2.982,2.982,0,0,1,2.668,5.333L38.316,24.611A2.953,2.953,0,0,1,36.987,24.927Z" transform="translate(-34 -12.999)" fill="#fff"/>
    </g>
    <g id="Group_42" data-name="Group 42" transform="translate(134.154 76.025)">
      <path id="Path_70" data-name="Path 70" d="M56.925,62.282A11.937,11.937,0,0,1,45,50.357c0-3.4,3.434-23.861,11.925-23.861s11.925,20.46,11.925,23.861A11.937,11.937,0,0,1,56.925,62.282Zm0-29.758c-2.355,1.446-5.962,12.917-5.962,17.833a5.962,5.962,0,0,0,11.925,0C62.887,45.441,59.28,33.97,56.925,32.524Z" transform="translate(-45 -26.496)" fill="#fff"/>
    </g>
    <g id="Group_43" data-name="Group 43" transform="translate(143.098 96.905)">
      <path id="Path_71" data-name="Path 71" d="M50.981,60.322A2.978,2.978,0,0,1,48,57.34V36.481a2.981,2.981,0,1,1,5.962,0V57.34A2.978,2.978,0,0,1,50.981,60.322Z" transform="translate(-48 -33.5)" fill="#fff"/>
    </g>
    <g id="Group_44" data-name="Group 44" transform="translate(32.794 76.025)">
      <path id="Path_72" data-name="Path 72" d="M22.925,62.282A11.937,11.937,0,0,1,11,50.357c0-3.4,3.434-23.861,11.925-23.861s11.925,20.46,11.925,23.861A11.937,11.937,0,0,1,22.925,62.282Zm0-29.758c-2.355,1.446-5.962,12.917-5.962,17.833a5.962,5.962,0,0,0,11.925,0C28.887,45.441,25.28,33.97,22.925,32.524Z" transform="translate(-11 -26.496)" fill="#fff"/>
    </g>
    <g id="Group_45" data-name="Group 45" transform="translate(41.738 96.905)">
      <path id="Path_73" data-name="Path 73" d="M16.981,60.322A2.978,2.978,0,0,1,14,57.34V36.481a2.981,2.981,0,1,1,5.962,0V57.34A2.978,2.978,0,0,1,16.981,60.322Z" transform="translate(-14 -33.5)" fill="#fff"/>
    </g>
  </g>
</svg>
