<svg xmlns="http://www.w3.org/2000/svg" width="41.064" height="41.063" viewBox="0 0 41.064 41.063">
  <path id="facebook" d="M6.015,41.064H19.409v-14.6H14.6V21.655h4.812V15.639a6.022,6.022,0,0,1,6.015-6.015h6.015v4.812H26.627a2.409,2.409,0,0,0-2.406,2.406v4.812h7l-.8,4.812h-6.2v14.6H35.048a6.022,6.022,0,0,0,6.015-6.015V6.015A6.022,6.022,0,0,0,35.048,0H6.015A6.022,6.022,0,0,0,0,6.015V35.048A6.022,6.022,0,0,0,6.015,41.064ZM2.406,6.015A3.613,3.613,0,0,1,6.015,2.406H35.048a3.613,3.613,0,0,1,3.609,3.609V35.048a3.613,3.613,0,0,1-3.609,3.609H26.627V28.873h5.831l1.6-9.624H26.627V16.842h7.218V7.218H25.424A8.431,8.431,0,0,0,17,15.639v3.609H12.191v9.624H17v9.785H6.015a3.613,3.613,0,0,1-3.609-3.609Zm0,0" fill="#454343"/>
</svg>
