<svg xmlns="http://www.w3.org/2000/svg" width="147.86" height="172.187" viewBox="0 0 147.86 172.187">
  <g id="Best_Price_Icon" data-name="Best Price Icon" transform="translate(-223.69 -332.06)">
    <path id="Path_21" data-name="Path 21" d="M292.9,506.271H243.57a2.718,2.718,0,0,1-.84-.136L225.44,500.4a2.521,2.521,0,0,1-1.75-2.375V449.609a2.537,2.537,0,0,1,2.12-2.472,14.5,14.5,0,0,0,8.96-6.737l12.49-40.366a2.616,2.616,0,0,1,2.83-1.774,20.693,20.693,0,0,1,7.74,2.957c3.56,2.288,7.81,6.718,7.81,14.861,0,.107-.01.213-.02.32l-2.77,20.842h37.44c.12,0,.24.01.35.019,3.2.427,9.25,3.17,9.25,10.46v.039a10.372,10.372,0,0,1-4.68,8.6,12.306,12.306,0,0,1,1.77,6.96c0,2.685-.95,7.174-4.12,9.2a17.266,17.266,0,0,1,1.46,7.678,2.2,2.2,0,0,1-.03.368A16.758,16.758,0,0,1,303,484.74a9.145,9.145,0,0,1-3.11,3.887,11.571,11.571,0,0,1,1.89,6.65c.02.727.01,5.642-3.05,8.686A8.021,8.021,0,0,1,292.9,506.271ZM244,501.24h48.9a2.84,2.84,0,0,0,2.11-.766c1.36-1.338,1.61-4.2,1.59-5.089v-.058c0-2.889-1.09-4.13-1.62-4.566l-15.55-1.008a2.517,2.517,0,0,1,.17-5.031h16.69c1.41,0,2.53-3.025,2.85-4.721-.03-3.461-.77-5.1-1.2-5.768l-15.42-.659a2.516,2.516,0,1,1,.11-5.031h16.44c2.57,0,2.73-5.167,2.73-5.225,0-3.907-1.42-4.905-1.87-5.118l-14.27-.572a2.516,2.516,0,1,1,.1-5.031h14.51c4.03,0,4.39-4.033,4.42-4.905a5.339,5.339,0,0,0-4.64-5.419H259.88a2.623,2.623,0,0,1-1.95-.853,2.5,2.5,0,0,1-.63-1.978l3.12-23.518c-.07-8.075-5.73-11.09-8.93-12.147l-11.86,38.35a2.386,2.386,0,0,1-.23.514,20.1,20.1,0,0,1-10.55,8.831v44.748Z" transform="translate(0 -2.024)" fill="#fff"/>
    <g id="Group_1" data-name="Group 1" transform="translate(285.26 358.505)">
      <path id="Path_22" data-name="Path 22" d="M289.91,359.34h46.16v.1a70.3,70.3,0,0,1-4.61,6.514H319.13a15.279,15.279,0,0,1,3.45,7.028h13.15c.16.029.24.1.24.184-2.94,4.275-4.45,6.417-4.51,6.417h-8.54q-.285,3.3-3.26,7.959-3.93,4.7-7.53,6.1a30.629,30.629,0,0,1-12.86,3.121v.1q0,.465,3.02,3.858l22.79,26.659v1.26c0,.126-.08.184-.24.184H314.81q-27.06-30.565-27.06-30.7v-6.185l.1-.233a42.873,42.873,0,0,0,5.61.33q15.165,0,18.86-9.539a7.571,7.571,0,0,0,.58-2.889H285.45c-.13,0-.19-.058-.19-.184Q289.82,373,289.91,373H311.7v-.1q-1.875-3.679-7.25-5.72a23.313,23.313,0,0,0-6.91-1.212H285.35v-.233C288.29,361.463,289.81,359.34,289.91,359.34Z" transform="translate(-285.26 -359.34)" fill="#fff"/>
    </g>
    <path id="Path_23" data-name="Path 23" d="M371.55,391.194c0-32.6-27.36-59.134-61-59.134-32.66,0-59.41,25.011-60.93,56.323h5.19c1.51-28.53,25.93-51.291,55.73-51.291,30.77,0,55.81,24.274,55.81,54.1,0,28.239-22.44,51.5-50.94,53.889v5.051C346.79,447.73,371.55,422.215,371.55,391.194Z" fill="#fff"/>
  </g>
</svg>
