<svg xmlns="http://www.w3.org/2000/svg" width="117.782" height="172.187" viewBox="0 0 117.782 172.187">
  <g id="Location_Icon" data-name="Location Icon" transform="translate(-226.095 -302.293)">
    <path id="Path_24" data-name="Path 24" d="M284.952,455.475c-2.629-2.9-5.185-5.672-7.692-8.5a407.6,407.6,0,0,1-27.646-34.494,197.687,197.687,0,0,1-16-26.031,80.229,80.229,0,0,1-6.467-16.967,41.227,41.227,0,0,1-.86-12.894,56.851,56.851,0,0,1,7.538-24.562c8.642-14.8,21.308-24.441,38.032-28.149,18.7-4.155,35.785-.154,50.675,11.985A56.989,56.989,0,0,1,342.986,351a49.218,49.218,0,0,1,.73,13.186,50.244,50.244,0,0,1-3.5,13.6A131.514,131.514,0,0,1,328.8,399.85,309.938,309.938,0,0,1,307.08,430q-9.9,12.318-20.643,23.921C285.974,454.412,285.511,454.891,284.952,455.475Zm.073-13.527c3.367-3.862,6.67-7.579,9.883-11.376a313.624,313.624,0,0,0,23.386-31.111c5.193-7.952,10.021-16.123,13.486-25.009a40.4,40.4,0,0,0,2.946-11.571,39.745,39.745,0,0,0-.536-9.259,48.547,48.547,0,0,0-13.218-26.559,49.105,49.105,0,0,0-35.062-15.653A47.472,47.472,0,0,0,271.246,313c-13.924,3.976-24.059,12.586-30.689,25.374a49.206,49.206,0,0,0-5.25,18.671,31.6,31.6,0,0,0,.227,8.39A57.435,57.435,0,0,0,240.087,379a175.851,175.851,0,0,0,15.864,26.818,344.928,344.928,0,0,0,22.761,29.066C280.748,437.217,282.842,439.5,285.025,441.948Z" transform="translate(-0.007 0)" fill="#fff"/>
    <path id="Path_25" data-name="Path 25" d="M263.174,467.56v9.048c-9.843,1.461-19.645,2.954-27.979,8.9-.008.122-.016.243-.016.373,1.022.665,2,1.4,3.067,1.972a60.488,60.488,0,0,0,14.192,5.136,116.757,116.757,0,0,0,17.779,2.937,167.033,167.033,0,0,0,23.24.438,134.242,134.242,0,0,0,17.933-1.98,71.532,71.532,0,0,0,19.012-5.81c1.526-.755,2.946-1.737,4.625-2.751-.82-.609-1.371-1.071-1.98-1.444a41.9,41.9,0,0,0-11.149-4.536c-4.13-1.128-8.325-2.029-12.5-3.027-.276-.065-.552-.138-.844-.211v-9.023c1.785.276,3.505.519,5.218.82a79.471,79.471,0,0,1,16.983,4.723c3.822,1.6,7.473,3.489,10.37,6.556,1.818,1.923,3,4.138,2.662,6.873a9.769,9.769,0,0,1-3.676,6.094c-3.692,3.246-8.09,5.185-12.65,6.808a101.01,101.01,0,0,1-18.606,4.447,159.609,159.609,0,0,1-26.323,1.72,154.157,154.157,0,0,1-22.445-1.883,93.911,93.911,0,0,1-20.27-5.3c-4-1.615-7.847-3.53-10.914-6.662a8.314,8.314,0,0,1-2.791-6.565,8.49,8.49,0,0,1,2.58-5.234,26.9,26.9,0,0,1,8.95-5.883,78.717,78.717,0,0,1,18.176-5.331C258.24,468.323,260.667,467.966,263.174,467.56Z" transform="translate(0 -31.162)" fill="#fff"/>
    <path id="Path_26" data-name="Path 26" d="M291.892,397.148a28.989,28.989,0,1,1,29.017-28.839A28.565,28.565,0,0,1,291.892,397.148Zm19.961-29.009a19.933,19.933,0,1,0-19.921,20A20.054,20.054,0,0,0,311.854,368.139Z" transform="translate(-6.947 -6.953)" fill="#fff"/>
  </g>
</svg>
