<svg id="instagram" xmlns="http://www.w3.org/2000/svg" width="41.315" height="41.315" viewBox="0 0 41.315 41.315">
  <path id="Path_103" data-name="Path 103" d="M6.052,41.315H35.263a6.059,6.059,0,0,0,6.052-6.052V6.052A6.059,6.059,0,0,0,35.263,0H6.052A6.059,6.059,0,0,0,0,6.052V35.263A6.059,6.059,0,0,0,6.052,41.315ZM2.421,6.052A3.635,3.635,0,0,1,6.052,2.421H35.263a3.635,3.635,0,0,1,3.631,3.631V35.263a3.635,3.635,0,0,1-3.631,3.631H6.052a3.635,3.635,0,0,1-3.631-3.631Zm0,0" transform="translate(0 0)" fill="#454343"/>
  <path id="Path_104" data-name="Path 104" d="M131.894,142.787A10.894,10.894,0,1,0,121,131.894,10.906,10.906,0,0,0,131.894,142.787Zm0-19.366a8.473,8.473,0,1,1-8.473,8.473A8.482,8.482,0,0,1,131.894,123.421Zm0,0" transform="translate(-111.236 -111.236)" fill="#454343"/>
  <path id="Path_105" data-name="Path 105" d="M364.631,68.262A3.631,3.631,0,1,0,361,64.631,3.635,3.635,0,0,0,364.631,68.262Zm0-4.842a1.21,1.21,0,1,1-1.21,1.21A1.212,1.212,0,0,1,364.631,63.421Zm0,0" transform="translate(-331.87 -56.078)" fill="#454343"/>
</svg>
