<svg id="Group_85" data-name="Group 85" xmlns="http://www.w3.org/2000/svg" xmlns:xlink="http://www.w3.org/1999/xlink" width="29.154" height="28.737" viewBox="0 0 29.154 28.737">
  <defs>
    <clipPath id="clip-path">
      <rect id="Rectangle_27" data-name="Rectangle 27" width="29.154" height="28.737" fill="none"/>
    </clipPath>
  </defs>
  <g id="Group_81" data-name="Group 81" transform="translate(0 0)" clip-path="url(#clip-path)">
    <path id="Path_94" data-name="Path 94" d="M1050.25,905.654c0-.039,0-.078,0-.119V884.263a2.16,2.16,0,0,1,1.391-2.08,1.987,1.987,0,0,1,.717-.141h13.7c.019,0,.036,0,.055,0-.019.027-.034.055-.054.081a7.149,7.149,0,0,0-1.368,3.809,6.36,6.36,0,0,0,.613,3.168c.159.339.347.662.531.989-.032.029-.064.059-.094.089L1050.911,905c-.219.219-.44.434-.661.652m8-18.9v0c-.592,0-1.184,0-1.775,0-.088,0-.105.027-.105.109,0,.432.005.865,0,1.3,0,.09.024.112.114.112.645,0,1.291,0,1.937,0,.089,0,.109.013.076.106a2.147,2.147,0,0,1-1.984,1.464,2.392,2.392,0,1,1,1.343-4.263c.067.053.1.037.147-.013.324-.328.65-.656.978-.979.057-.056.052-.083-.006-.13a3.863,3.863,0,0,0-3.817-.775,3.946,3.946,0,0,0-2.372,5.46,3.865,3.865,0,0,0,2.5,2.125,4.248,4.248,0,0,0,1.958.08,3.233,3.233,0,0,0,2.125-1.231,4.217,4.217,0,0,0,.764-3.275c-.01-.068-.043-.082-.106-.082-.591,0-1.182,0-1.774,0" transform="translate(-1050.142 -878.961)" fill="#2c8843" fill-rule="evenodd"/>
    <path id="Path_95" data-name="Path 95" d="M1065.385,890.177c-.184-.326-.371-.65-.531-.989a6.362,6.362,0,0,1-.613-3.168,7.153,7.153,0,0,1,1.368-3.809c.02-.026.036-.054.054-.08a7.688,7.688,0,0,1,1.163-1.218,7.217,7.217,0,0,1,11.739,4.405,6.694,6.694,0,0,1-1.013,4.762c-.5.81-1.081,1.564-1.658,2.322-.043.057-.083.117-.126.174-.022.025-.043.047-.063.073-.367.482-.726.969-1.07,1.467a16.241,16.241,0,0,0-2.173,4.351,16.88,16.88,0,0,0-.587,2.62.593.593,0,0,1-.259.5l-.043,0a.39.39,0,0,1-.526-.326c-.026-.1-.041-.2-.061-.305-.021-.131-.039-.263-.061-.394a15.3,15.3,0,0,0-.718-2.729,16.654,16.654,0,0,0-2.1-3.928c-.244-.345-.485-.689-.749-1.016-.027-.039-.052-.078-.079-.116q-.458-.605-.919-1.21c-.342-.449-.656-.917-.969-1.386m6.054-6.251a2.528,2.528,0,1,0,2.528,2.518,2.518,2.518,0,0,0-2.528-2.518" transform="translate(-1049.697 -879.049)" fill="#ca2826" fill-rule="evenodd"/>
    <path id="Path_96" data-name="Path 96" d="M1073.783,907.535H1052.6c-.025,0-.05,0-.075,0,.032-.034.062-.07.095-.1q5.231-5.233,10.465-10.465c.025-.026.055-.045.082-.068.035.036.067.075.1.11q5.2,5.205,10.406,10.408c.037.038.086.067.1.121" transform="translate(-1050.069 -878.487)" fill="#2e62ad" fill-rule="evenodd"/>
    <path id="Path_97" data-name="Path 97" d="M1063.242,897.121c-.027.023-.057.043-.082.068L1052.7,907.654c-.033.033-.063.069-.095.1a2.173,2.173,0,0,1-2.35-2.352c.221-.217.443-.433.661-.653l14.824-14.822c.03-.031.062-.061.094-.091.313.469.627.938.969,1.387q.461.6.919,1.21c.028.037.053.076.078.115l-2.122,2.127c-.03.03-.058.064-.087.095s-.04.031-.058.049l-2.233,2.233c-.02.021-.036.044-.055.067" transform="translate(-1050.142 -878.712)" fill="#ffcb24" fill-rule="evenodd"/>
    <path id="Path_98" data-name="Path 98" d="M1062.841,896.968c.019-.023.035-.046.055-.067q1.116-1.116,2.233-2.233c.018-.018.038-.032.058-.049.028.033.055.067.085.1q2.834,2.836,5.67,5.67c.028.028.058.054.087.08.021.1.037.2.062.306a.392.392,0,0,0,.527.327.187.187,0,0,1,.042-.005c.024.027.045.056.07.08q2,2,4,4c.025.025.054.046.082.07a2.236,2.236,0,0,1-.115.921,2.149,2.149,0,0,1-1.708,1.42,4.057,4.057,0,0,1-.538.018c-.018-.054-.067-.083-.1-.12q-5.2-5.2-10.406-10.409c-.036-.035-.068-.073-.1-.11" transform="translate(-1049.741 -878.56)" fill="#eaeaea" fill-rule="evenodd"/>
    <path id="Path_99" data-name="Path 99" d="M1075.542,905.327c-.027-.024-.056-.044-.081-.07l-4-4c-.025-.026-.046-.055-.07-.081a.594.594,0,0,0,.259-.5,17,17,0,0,1,.587-2.62,16.248,16.248,0,0,1,2.173-4.351c.344-.5.7-.985,1.07-1.466.02-.027.042-.049.063-.074,0,.025,0,.051,0,.075v13.086" transform="translate(-1049.469 -878.638)" fill="#bfbfbb" fill-rule="evenodd"/>
    <path id="Path_100" data-name="Path 100" d="M1058.183,886.712c.591,0,1.182,0,1.774,0,.063,0,.1.013.106.082a4.217,4.217,0,0,1-.763,3.275,3.234,3.234,0,0,1-2.125,1.231,4.249,4.249,0,0,1-1.958-.08,3.865,3.865,0,0,1-2.5-2.125,3.946,3.946,0,0,1,2.372-5.46,3.863,3.863,0,0,1,3.817.775c.058.048.063.074.006.13-.328.323-.654.651-.978.979-.05.051-.08.066-.147.013a2.392,2.392,0,1,0-1.342,4.263,2.147,2.147,0,0,0,1.984-1.464c.033-.093.012-.106-.076-.106-.646,0-1.292,0-1.937,0-.09,0-.115-.023-.114-.112.005-.433,0-.866,0-1.3,0-.083.017-.109.105-.109.591,0,1.182,0,1.775,0Z" transform="translate(-1050.076 -878.916)" fill="#fefefe" fill-rule="evenodd"/>
    <path id="Path_101" data-name="Path 101" d="M1071.294,883.782a2.528,2.528,0,1,1-2.52,2.525,2.52,2.52,0,0,1,2.52-2.525" transform="translate(-1049.552 -878.905)" fill="#611919" fill-rule="evenodd"/>
    <path id="Path_102" data-name="Path 102" d="M1070.955,900.536c-.029-.027-.059-.053-.087-.08l-5.67-5.67a1.22,1.22,0,0,1-.085-.1c.029-.031.056-.065.087-.095q1.062-1.063,2.124-2.127c.264.328.506.673.748,1.016a16.735,16.735,0,0,1,2.106,3.929,15.383,15.383,0,0,1,.717,2.73c.022.13.04.262.06.393" transform="translate(-1049.669 -878.629)" fill="#bfbfbb" fill-rule="evenodd"/>
  </g>
</svg>
