<svg xmlns="http://www.w3.org/2000/svg" width="168.819" height="168.818" viewBox="0 0 168.819 168.818">
  <g id="diamond" transform="translate(0 -0.001)">
    <g id="Group_251" data-name="Group 251" transform="translate(0 0.001)">
      <path id="Path_390" data-name="Path 390" d="M137.454,61.392a3.3,3.3,0,1,0-1.545,6.411,59.351,59.351,0,1,1-27.924,0,3.3,3.3,0,1,0-1.545-6.411A66.261,66.261,0,0,0,70.369,84.4,65.231,65.231,0,0,0,56,125.5a65.945,65.945,0,0,0,131.889,0,65.233,65.233,0,0,0-14.367-41.092,66.257,66.257,0,0,0-36.069-23.014Z" transform="translate(-37.536 -41.088)" fill="#fff"/>
      <path id="Path_391" data-name="Path 391" d="M166.831,76.479l-3.857-7.2.644-8.9a16.833,16.833,0,0,0-6.093-14.9l-6.4-5.243L148.6,32.656a16.947,16.947,0,0,0-11.533-12.191l-7.9-2.388-6.053-7a16.878,16.878,0,0,0-14.5-5.864l-8.2.817L92.343,1.989a16.826,16.826,0,0,0-15.866,0l-7.2,3.857-8.9-.643a16.826,16.826,0,0,0-14.9,6.093l-5.243,6.4-7.588,2.519A16.947,16.947,0,0,0,20.464,31.75l-2.387,7.9-7,6.053a16.874,16.874,0,0,0-5.863,14.5l.817,8.2L1.988,76.477a16.822,16.822,0,0,0,0,15.865l3.857,7.2-.643,8.9a16.831,16.831,0,0,0,6.093,14.9l6.4,5.243,2.519,7.588a16.948,16.948,0,0,0,11.533,12.191l7.9,2.387,6.053,7a16.876,16.876,0,0,0,14.5,5.864l8.2-.818,8.063,4.045a16.823,16.823,0,0,0,15.866,0l7.2-3.857,8.9.643a16.828,16.828,0,0,0,14.9-6.093l5.243-6.4,7.588-2.519a16.947,16.947,0,0,0,12.191-11.533l2.387-7.9,7-6.053a16.873,16.873,0,0,0,5.864-14.5l-.817-8.2,4.045-8.063a16.821,16.821,0,0,0,0-15.866ZM161,89.268c-.015.027-.029.054-.042.081l-4.493,8.957a3.3,3.3,0,0,0-.334,1.805l.912,9.15a10.288,10.288,0,0,1-3.595,8.847l-7.741,6.7a3.3,3.3,0,0,0-1,1.54l-2.664,8.818a10.334,10.334,0,0,1-7.53,7.055c-.1.023-.195.05-.29.082l-8.63,2.865a3.3,3.3,0,0,0-1.512,1.04l-5.85,7.144a10.26,10.26,0,0,1-9.126,3.709l-.131-.012-9.912-.717a3.277,3.277,0,0,0-1.8.382l-8.033,4.306a10.242,10.242,0,0,1-9.68-.018l-.081-.042-8.957-4.493a3.3,3.3,0,0,0-1.478-.35c-.109,0-.218.006-.327.016l-9.15.912a10.3,10.3,0,0,1-8.847-3.595l-6.7-7.741a3.3,3.3,0,0,0-1.54-1l-8.818-2.664a10.335,10.335,0,0,1-7.055-7.53c-.023-.1-.05-.195-.082-.29l-2.865-8.63a3.3,3.3,0,0,0-1.04-1.512l-7.144-5.849a10.264,10.264,0,0,1-3.709-9.127c0-.044.009-.087.012-.131l.717-9.912a3.3,3.3,0,0,0-.382-1.8L7.8,89.232a10.238,10.238,0,0,1,.019-9.679c.014-.027.028-.054.042-.081l4.493-8.957a3.3,3.3,0,0,0,.334-1.805l-.912-9.15a10.29,10.29,0,0,1,3.594-8.847l7.741-6.7a3.294,3.294,0,0,0,1-1.54l2.664-8.818a10.335,10.335,0,0,1,7.53-7.055c.1-.023.195-.05.29-.082l8.63-2.865a3.3,3.3,0,0,0,1.512-1.04l5.85-7.144a10.261,10.261,0,0,1,9.127-3.709l.131.012,9.912.717a3.3,3.3,0,0,0,1.8-.382L79.587,7.8a10.239,10.239,0,0,1,9.68.018l.08.042L98.3,12.357a3.311,3.311,0,0,0,1.806.334l9.15-.912a10.294,10.294,0,0,1,8.847,3.595l6.7,7.741a3.293,3.293,0,0,0,1.54,1l8.818,2.664a10.334,10.334,0,0,1,7.055,7.53c.023.1.05.195.082.29l2.865,8.63a3.3,3.3,0,0,0,1.04,1.512l7.144,5.849a10.265,10.265,0,0,1,3.709,9.127q-.007.065-.012.131l-.717,9.912a3.3,3.3,0,0,0,.382,1.8l4.306,8.033a10.237,10.237,0,0,1-.018,9.68Z" transform="translate(0 -0.001)" fill="#fff"/>
      <path id="Path_392" data-name="Path 392" d="M140.742,154.448l-13.633,20.616a6.836,6.836,0,0,0,.553,8.287l36.328,41.324a6.477,6.477,0,0,0,4.842,2.207h.005a6.487,6.487,0,0,0,4.834-2.187c8.191-9.032,16.388-18.454,24.317-27.566,3.942-4.531,8.019-9.216,12.025-13.773a6.85,6.85,0,0,0,.393-8.539l-13.711-20.734a6.5,6.5,0,0,0-5.405-2.952h-44.9a6.525,6.525,0,0,0-5.647,3.318Zm10.381,27.69,10.3,29.628-26.046-29.628Zm23.724-24.414,5.011,17.819H157.82l5.011-17.819Zm4.727,24.414-10.734,30.877L158.1,182.138ZM193.012,192.8c-5.52,6.343-11.17,12.835-16.85,19.234l10.393-29.894h15.753C199.189,185.7,196.061,189.3,193.012,192.8Zm9.968-17.255H186.708L181.7,157.725h9.5Zm-56.515-17.819h9.516l-5.011,17.819H134.7l11.613-17.562c.054-.082.1-.166.151-.253Z" transform="translate(-84.433 -101.299)" fill="#fff"/>
      <path id="Path_393" data-name="Path 393" d="M249.3,62.6a3.3,3.3,0,0,0,0-6.594h0a3.3,3.3,0,0,0,0,6.594Z" transform="translate(-164.891 -37.537)" fill="#fff"/>
    </g>
  </g>
</svg>
