<svg xmlns="http://www.w3.org/2000/svg" width="50.07" height="40.98" viewBox="0 0 50.07 40.98">
  <path id="twitter" d="M50.07,5.473c-3.15.145-3.081.133-3.437.163L48.5.309s-5.822,2.142-7.3,2.525A11.682,11.682,0,0,0,27.442,1.728a9.529,9.529,0,0,0-4.58,9.8A25.415,25.415,0,0,1,6.4,2.256L5.015.6l-1.032,1.9A11.454,11.454,0,0,0,2.763,10.2a11.079,11.079,0,0,0,1.073,3.01l-1.185-.459-.141,1.98A10.564,10.564,0,0,0,4.3,21.015a11.166,11.166,0,0,0,1.4,1.721l-.612-.094.747,2.269A11.029,11.029,0,0,0,11.5,31.479c-2.644,1.122-4.78,1.838-8.29,2.993L0,35.528,2.967,37.15a31.139,31.139,0,0,0,9.077,3.3c8.778,1.377,18.662.256,25.316-5.737,5.6-5.047,7.443-12.227,7.061-19.7a4.668,4.668,0,0,1,.872-3.039C46.536,10.319,50.062,5.484,50.07,5.473Zm-7.122,4.748a7.6,7.6,0,0,0-1.454,4.946c.385,7.537-1.665,13.381-6.1,17.371-5.175,4.661-13.522,6.49-22.9,5.019A22.71,22.71,0,0,1,7.592,36.1a77.8,77.8,0,0,0,8.887-3.653L21.6,30.021l-5.657-.362A8,8,0,0,1,9.592,26.04a10.147,10.147,0,0,0,2.154-.359l5.4-1.5L11.7,22.846A8.1,8.1,0,0,1,6.751,19.4a8.3,8.3,0,0,1-1.073-2.367,13.582,13.582,0,0,0,2.207.352l5.036.5-3.99-3.113a8.4,8.4,0,0,1-3.182-8.85c8.972,9.306,19.507,8.607,20.568,8.853a17.369,17.369,0,0,0-.3-2.488,6.736,6.736,0,0,1,2.961-8.063,8.762,8.762,0,0,1,10.337.856,2.625,2.625,0,0,0,2.409.644,20.275,20.275,0,0,0,1.985-.6L42.442,8.735h1.615C43.753,9.145,43.387,9.634,42.947,10.221Zm0,0" transform="translate(0 0)" fill="#454343"/>
</svg>
